<svg xmlns="http://www.w3.org/2000/svg" width="200" viewBox="0 0 512.1 129.6"><defs><style>.cls-1{fill:maroon;stroke-linecap:round;stroke-linejoin:round;stroke-width:1.6px;}.cls-1,.cls-2{stroke:#fff;}.cls-2{fill:none;stroke-miterlimit:5.33;stroke-width:8px;}.cls-3{fill:#fff;}.cls-4{font-size:66.02px;font-family:ArialMT, Arial;}</style></defs><g id="Layer_2" data-name="Layer 2"><g id="svg2"><g id="layer3"><g id="g6907"><path id="path6909" class="cls-1" d="M56.8,128.8c56-32,56-32,56-112-24,0-32,0-56-16m0,128c-56-32-56-32-56-112,24,0,32,0,56-16"/></g></g><g id="layer5"><circle id="path2996-3" class="cls-2" cx="68.8" cy="60.8" r="16"/><g id="text3778"><path id="path3783" class="cls-3" d="M56.8,64.8c0,11-5,16-16,16s-16-5-16-16v-24h8v24c0,7,1,8,8,8s8-1,8-8v-24h8Z"/></g></g><text class="cls-4" transform="translate(119.49 82.41)">uBlock Origin</text></g></g></svg>